<svg width="64" height="64" viewBox="0 0 64 64" fill="none" xmlns="http://www.w3.org/2000/svg">
<path d="M6.77683 31.2125C6.77683 31.2125 9.30533 34.9271 14.6048 38.0714C14.6048 38.0714 10.7667 5.63363 35.7746 0C29.3675 23.5151 43.9246 30.1467 49.231 17.7232C58.0926 29.5546 51.3642 39.8769 51.3642 39.8769C54.9978 40.4004 58.0501 36.4306 58.0501 36.4306C58.0773 36.9196 58.0926 37.412 58.0926 37.9079C58.0927 52.3181 46.4108 64 32.0005 64C17.5901 64 5.9082 52.3181 5.9082 37.9077C5.9082 35.593 6.2112 33.3493 6.77683 31.2125Z" fill="#FF922B"/>
<path d="M58.0498 36.4306C58.0498 36.4306 54.9975 40.4004 51.3639 39.8769C51.3639 39.8769 58.0923 29.5546 49.2306 17.7232C43.9242 30.1467 29.3671 23.5151 35.7743 0C34.4349 0.30175 33.1789 0.680875 32 1.12725V64C46.4104 64 58.0923 52.3181 58.0923 37.9077C58.0923 37.4119 58.077 36.9196 58.0498 36.4306Z" fill="#E8590C"/>
<path d="M20.5566 52.5569C20.5566 58.8767 25.6799 63.9999 31.9996 63.9999C38.3194 63.9999 43.4426 58.8767 43.4426 52.5569C43.4426 49.1743 41.975 46.1345 39.6416 44.0397C35.2174 50.0503 28.9126 40.9327 33.8261 34.2744C33.8261 34.2744 20.5566 35.9373 20.5566 52.5569Z" fill="#FCC419"/>
<path d="M43.443 52.5569C43.443 49.1743 41.9754 46.1345 39.642 44.0397C35.2177 50.0503 28.913 40.9327 33.8265 34.2744C33.8265 34.2744 33.1055 34.365 32 34.7139V63.9999C38.3197 63.9999 43.443 58.8767 43.443 52.5569Z" fill="#F59F00"/>
</svg>
