<svg width="47" height="46" viewBox="0 0 47 46" fill="none" xmlns="http://www.w3.org/2000/svg">
<path d="M27.6378 12.2484C27.7979 12.2346 27.9536 12.1893 28.0962 12.1152C28.2388 12.0411 28.3653 11.9396 28.4686 11.8165C28.5718 11.6934 28.6498 11.5511 28.698 11.3978C28.7462 11.2445 28.7637 11.0833 28.7494 10.9232C28.7494 10.9232 28.7494 10.9012 28.7494 10.8918V9.34365C28.7678 9.18402 28.7545 9.02234 28.7103 8.86787C28.666 8.71339 28.5917 8.56917 28.4917 8.44345C28.3916 8.31772 28.2678 8.21297 28.1272 8.13519C27.9866 8.05741 27.832 8.00814 27.6723 7.99019H25.4427V4.59241C25.8531 4.09996 26.0756 3.47799 26.0708 2.83699C26.1156 2.49345 26.0888 2.14435 25.9922 1.81165C25.8956 1.47894 25.7312 1.16981 25.5094 0.90369C25.2876 0.637567 25.0131 0.420203 24.7032 0.265255C24.3933 0.110307 24.0548 0.0211321 23.7088 0.00332213C23.3628 -0.0144879 23.0169 0.0394522 22.6927 0.161764C22.3686 0.284076 22.0732 0.472115 21.8253 0.714054C21.5773 0.955993 21.382 1.24661 21.2518 1.56764C21.1215 1.88866 21.059 2.23316 21.0683 2.57949C21.062 2.66521 21.062 2.75127 21.0683 2.83699C21.0618 3.47827 21.2846 4.10079 21.6964 4.59241V7.98705H19.4982C19.3378 8.00086 19.1817 8.04623 19.039 8.12055C18.8962 8.19488 18.7695 8.29668 18.6662 8.42012C18.5629 8.54356 18.485 8.6862 18.437 8.83984C18.389 8.99349 18.3719 9.1551 18.3865 9.31539C18.385 9.32475 18.385 9.33429 18.3865 9.34365V10.8918C18.3677 11.0515 18.3807 11.2133 18.4248 11.368C18.4689 11.5226 18.5431 11.667 18.6432 11.7928C18.7434 11.9187 18.8674 12.0234 19.0082 12.1011C19.149 12.1787 19.3038 12.2277 19.4636 12.2453H21.6618L21.0338 40.3916C21.0302 40.4988 21.0483 40.6056 21.0872 40.7056L22.786 45.1334C22.8437 45.2862 22.9466 45.4179 23.081 45.5108C23.2153 45.6036 23.3748 45.6534 23.5381 45.6534C23.7015 45.6534 23.861 45.6036 23.9953 45.5108C24.1297 45.4179 24.2326 45.2862 24.2902 45.1334L25.9891 40.7056C26.0264 40.6052 26.0445 40.4987 26.0425 40.3916L25.4145 12.2453L27.6378 12.2484Z" fill="url(#paint0_linear_2582_909)"/>
<path d="M11.5 16.095C11.5 19.8634 11.6696 24.7088 12.9948 28.9859C13.6188 31.1298 14.6486 33.134 16.0283 34.8896C17.1254 36.2425 18.4935 37.3507 20.0447 38.143L20.61 12.5371L12.0558 15.3288C11.8945 15.3821 11.7541 15.4848 11.6544 15.6223C11.5546 15.7598 11.5006 15.9252 11.5 16.095Z" fill="url(#paint1_linear_2582_909)"/>
<path d="M35.0899 15.3288L26.5452 12.5371L27.1104 38.143C28.6603 37.3487 30.028 36.2408 31.1268 34.8896C32.5053 33.1332 33.535 31.1293 34.1603 28.9859C35.4824 24.7088 35.652 19.8508 35.652 16.095C35.6525 15.9253 35.5993 15.7598 35.5001 15.6222C35.4008 15.4845 35.2605 15.3818 35.0993 15.3288H35.0899Z" fill="url(#paint2_linear_2582_909)"/>
<defs>
<linearGradient id="paint0_linear_2582_909" x1="23.5711" y1="1.91375" x2="23.5711" y2="44.6687" gradientUnits="userSpaceOnUse">
<stop stop-color="#FFD43B"/>
<stop offset="1" stop-color="#F59F00"/>
</linearGradient>
<linearGradient id="paint1_linear_2582_909" x1="16.0534" y1="12.5371" x2="16.0534" y2="38.143" gradientUnits="userSpaceOnUse">
<stop stop-color="#FCC419"/>
<stop offset="1" stop-color="#E67700"/>
</linearGradient>
<linearGradient id="paint2_linear_2582_909" x1="31.0892" y1="12.5371" x2="31.0892" y2="44.4361" gradientUnits="userSpaceOnUse">
<stop stop-color="#FCC419"/>
<stop offset="1" stop-color="#E67700"/>
</linearGradient>
</defs>
</svg>
